<svg version="1" xmlns="http://www.w3.org/2000/svg" width="933.333" height="933.333" viewBox="0 0 700.000000 700.000000"><path d="M166.7 25.6c-.1.1-3.3.4-7.1.8-16.6 1.6-40.7 8.5-55.1 15.8-8.7 4.5-13.9 12.1-15.1 22-1 8.3.4 11.8 20.1 52.3 14.7 30.1 23.5 48.6 25.2 52.8 1.8 4.3 2.9 2.5-9.2 15.2-19.1 20.1-33.8 41.2-45.4 65-4.5 9.3-8.6 17.7-9 18.5-.5.8-2.6 2.1-4.7 2.9-2.1.8-7.7 3.1-12.2 5.2-4.6 2.2-8.8 3.9-9.3 3.9s-.9.4-.9 1c0 .5-.5 1-1.1 1-1.5 0-9.4 6.3-13.2 10.4-8.8 9.5-15.8 25-19.2 42.4-3.7 19.2-4.2 65.7-.9 83.7 4.4 24.1 11.3 38.9 23.6 50.6 7.1 6.7 17.9 12.3 32.8 16.9 5.8 1.8 11.2 3.5 12 3.8.8.3 2 .6 2.6.7 3.9.9 7.4 3.8 11.1 9.2 12.5 18.6 31.8 39.9 45.3 49.8 11.9 8.7 40.5 24.3 50.3 27.4 2 .7 3.7 1.6 3.8 1.9 0 .4.2 12.6.3 27.2.2 14.6.6 28.3 1.1 30.5 2.4 12.3 15 27.1 28.5 33.6l7.5 3.6 48-.1c52.4-.2 54.1-.4 64.1-6.2 5.4-3.2 13-10.6 17.2-16.6 5.7-8.2 6.7-13.5 7.6-38.1.2-6 .7-11.1 1-11.4.6-.7 50.3-.8 54.9-.2 1.5.2 2.7.6 2.8.9 0 .3.2 6.5.4 13.8.2 7.3.6 15 1 17 1.9 10.3 7 19.7 14.8 27.4 5.1 5 17.3 11.6 22.7 12.3 18.4 2.4 85.2 2.4 98.4-.1 4.8-.8 12.7-4.5 17.8-8.1 6.5-4.7 11.3-10.5 15.4-18.8 4.1-8.4 4.3-10.2 4.8-56 .2-19.5.7-31 1.4-31.3 5.4-1.8 29.9-23.6 40.6-36.2 5.7-6.8 15.8-22.3 21.4-33 7.5-14.5 17.6-41.1 19.7-52.1.3-1.2.9-3.6 1.4-5.3 1.5-4.7 5.9-27.3 6.6-34.1.4-3.3.9-7.1 1.2-8.5.3-1.4.7-17.1.8-35 .3-28.2.1-33.9-1.5-42.8-5.5-30.2-17-59.4-35-88.1l-7.8-12.4 5.4-5.6c7.1-7.5 11.1-13.2 14.7-21 3-6.3 3.1-7 3-20.1 0-11.4-.3-14.4-2.2-19.2-4.3-11-16.3-26.5-24.9-32-4.3-2.7-11.1-3-16.3-.7-5.5 2.5-7.6 4.4-10 9.1-3.9 7.6-1.9 14.7 7.1 25.8 9.1 11.3 10.1 14.8 6.5 22.5-2.4 5.4-7.8 11.9-9.3 11.4-.5-.2-4.5-3.7-8.8-7.8-4.4-4-12.7-11.1-18.5-15.6-9.4-7.3-14.2-10.7-28.9-20.1-8.5-5.5-29.4-16.1-44-22.4-14.8-6.5-48.7-17.6-59.2-19.5-1.6-.3-5.6-1.2-9-2-3.5-.8-7.9-1.7-9.8-2-1.9-.3-6.9-1.2-11.2-2-11.2-2.1-28.7-2.9-60.3-2.9-29.7 0-41.1.6-53.8 2.5l-7.9 1.2-7.1-7.1c-12.5-12.2-16-15.2-25.2-22.1-27.7-20.7-55.2-31.8-85.5-34.6-7.4-.7-25.8-1.3-26.3-.9zm22.8 39.8c30.3 3 57.4 16.6 82.9 41.9 7.2 7.1 22.2 23.6 23.2 25.5.1.2 6.8-.9 14.8-2.3 15.9-2.8 17.8-3.1 27.6-4 3.6-.4 7.9-.8 9.5-1 3.8-.5 41.9-.5 50-.1 21 1.2 31.6 2.6 53.2 7 22 4.5 57 17.5 80.3 29.8 9.9 5.2 30.8 18.2 35.9 22.4.9.7 4.7 3.8 8.6 6.9 11.2 9.1 25.1 22.9 34.3 34 23.1 28.2 38.9 63.7 43.6 98.3 2.1 15.5 1.3 43.4-2 69.2-7 55.8-30 101.6-63.9 127.1-5.7 4.3-16 10.9-17 10.9-.3 0-2.6 1.3-5.2 2.9l-4.8 3v91.2l-3.2 3.4-3.3 3.5h-84.2l-2.9-3.3c-1.6-1.7-2.9-4.1-3-5.2 0-1.1-.2-7.3-.4-13.7-.6-24.1-3.1-30.2-17.7-42.1-10.8-8.8-24.6-10.4-74.3-8.3-20.8.9-24 1.7-30.2 7.4-10.9 9.9-13.6 17.5-14.8 41.2-.8 16.6-1.4 19.9-4 21.6-1.2.8-5.4 1.7-9.1 1.9-9.7.5-66 .5-71.4 0-13.1-1.4-12.8-.2-12.9-57.1l-.1-28-10.7-3.3c-6-1.7-11.7-3.6-12.8-4-20-8.4-29.2-12.8-32.6-15.7-.8-.8-1.9-1.4-2.4-1.4-1.4 0-15.8-11.2-22.4-17.4-10.1-9.6-19-21.5-28.5-37.7-5.3-9-8.7-10.9-34.5-18.5-20.3-5.9-26.9-10-31.9-20.1-5.4-10.8-6.7-20.5-6.7-51.3 0-24.1.7-34.5 2.9-42.5 5-18.4 12.2-24.4 38.5-31.9 6.9-2 12.8-3.9 13.1-4.3.4-.5 2.4-5.9 4.5-12.2 6.8-20.6 19.3-43.1 33.8-61.1 9.8-12.2 32.3-34.3 44.3-43.6 1.6-1.3 1.5-1.5-23.6-52.9-18.6-38.2-25.8-54-26.6-58.2-.3-1.5 5.9-3.4 21.5-6.6 11.5-2.4 19.9-2.7 34.6-1.3z"/><path d="M347.8 160.5c-.2.1-3.4.6-7.3.9-6.8.7-12.5 1.3-17.5 2.1-25.8 4-30.2 5.6-33.7 12.3-3.3 6.5-2 14.4 3.3 19.9 2.8 2.9 11.3 3.4 24.7 1.3 3.7-.6 9.1-1.3 12-1.6 2.9-.3 6.3-.7 7.7-.9 10.4-1.8 44.9-2.4 63.5-1.2 13.3.9 18.8 1.6 34.9 4.3 7.2 1.2 16.1 1.2 18.6-.1 6-3.1 10.1-9.2 9.4-14-1-6.5-1.7-8.4-4.7-11.2-4.1-4-9.6-5.8-23.7-7.7-11.2-1.5-14.7-1.9-29.5-3.2-7.3-.6-57.1-1.4-57.7-.9zM202.5 248.3c-9.2 3.7-15.9 10.2-18.8 18.3-3.7 10.5-1.4 19.8 7.2 28.4 7 7 12.5 9.5 20.7 9.4 11.4-.2 23.2-8.5 26.7-18.8 1.8-5.4 1.4-15.7-.9-21.6-3.7-9.7-14.2-16.6-25.5-16.8-3.5 0-7.7.4-9.4 1.1z"/></svg>