<?xml version="1.0" standalone="no"?>
<!DOCTYPE svg PUBLIC "-//W3C//DTD SVG 20010904//EN"
 "http://www.w3.org/TR/2001/REC-SVG-20010904/DTD/svg10.dtd">
<svg version="1.0" xmlns="http://www.w3.org/2000/svg"
 width="512.000000pt" height="512.000000pt" viewBox="0 0 512.000000 512.000000"
 preserveAspectRatio="xMidYMid meet">
<metadata>
Created by potrace 1.14, written by Peter Selinger 2001-2017
</metadata>
<g transform="translate(0.000000,512.000000) scale(0.100000,-0.100000)"
fill="#000000" stroke="none">
<path d="M2365 5114 c-16 -2 -73 -9 -125 -15 -420 -48 -868 -230 -1227 -501
-129 -97 -336 -298 -440 -428 -309 -385 -485 -800 -554 -1310 -17 -122 -17
-478 0 -600 84 -619 335 -1122 768 -1540 399 -386 888 -622 1453 -702 146 -20
536 -17 685 6 274 42 522 119 770 241 409 200 762 513 1015 900 140 214 272
515 335 766 58 227 69 333 69 629 0 296 -11 402 -69 629 -86 340 -262 694
-483 971 -93 117 -279 303 -392 394 -210 167 -492 326 -735 414 -131 48 -360
105 -505 127 -99 16 -496 29 -565 19z m262 -979 c37 -14 79 -34 92 -44 l24
-19 -126 -250 -125 -250 71 -6 c186 -15 490 -27 497 -19 4 4 15 28 24 53 35
92 139 335 147 344 14 15 188 -31 237 -62 10 -7 6 -29 -18 -107 -18 -54 -47
-133 -65 -176 l-33 -78 32 -5 c17 -3 136 -12 265 -20 128 -8 235 -17 238 -19
7 -8 -18 -211 -27 -221 -9 -9 -931 9 -1210 24 -96 5 -206 11 -244 12 l-69 3
-107 -205 c-95 -183 -104 -205 -86 -208 11 -2 155 1 320 7 342 13 1556 35
1562 28 2 -2 7 -58 10 -124 l7 -120 -39 -6 c-21 -4 -101 -10 -176 -13 -76 -4
-138 -10 -138 -14 0 -4 34 -56 76 -116 147 -209 314 -464 314 -479 0 -9 -116
-63 -170 -79 -54 -16 -54 -16 -75 8 -161 191 -212 255 -281 352 -45 62 -106
155 -135 205 l-54 91 -85 -6 c-270 -20 -798 -44 -1275 -59 l-69 -2 -49 -85
c-27 -47 -101 -184 -164 -304 -133 -255 -148 -282 -223 -396 -114 -172 -120
-179 -146 -170 -59 23 -214 115 -214 127 0 6 241 466 347 662 46 85 83 156 83
158 0 2 -116 3 -257 3 l-257 -1 -9 23 c-11 29 -26 231 -18 240 3 3 166 16 361
28 195 12 355 22 356 23 13 22 244 449 244 451 0 2 -44 6 -97 9 -54 4 -194 14
-312 24 l-214 17 7 90 c3 50 9 103 12 119 l6 27 164 0 c100 0 164 4 164 10 0
5 -9 65 -19 132 -11 68 -22 148 -25 179 -5 53 -4 57 17 63 34 10 257 20 257
11 0 -6 28 -226 46 -362 l5 -43 72 0 73 0 58 103 c32 56 108 187 169 291 l110
188 38 -6 c21 -3 69 -17 106 -31z m38 -1855 c355 -13 598 -30 606 -42 16 -26
34 -252 34 -428 -1 -150 -5 -213 -18 -272 -10 -43 -22 -80 -28 -83 -5 -3 -110
-3 -234 1 l-224 7 -5 41 c-3 23 -7 69 -10 104 l-4 62 124 0 124 0 0 175 0 175
-62 0 c-35 0 -189 7 -343 15 -153 8 -280 13 -281 12 -1 -2 -104 -506 -132
-649 -11 -54 -18 -98 -16 -98 11 0 570 -84 689 -103 105 -18 141 -27 143 -39
3 -18 -26 -219 -33 -226 -26 -26 -1086 146 -1121 181 -15 15 70 476 145 782
34 140 36 160 22 162 -9 1 -47 5 -85 8 l-68 7 6 81 c4 45 10 97 13 116 l6 33
241 -6 c132 -4 363 -11 511 -16z"/>
</g>
</svg>
