<?xml version="1.0" standalone="no"?>
<!DOCTYPE svg PUBLIC "-//W3C//DTD SVG 20010904//EN"
 "http://www.w3.org/TR/2001/REC-SVG-20010904/DTD/svg10.dtd">
<svg version="1.0" xmlns="http://www.w3.org/2000/svg"
 width="512.000000pt" height="512.000000pt" viewBox="0 0 512.000000 512.000000"
 preserveAspectRatio="xMidYMid meet">
<metadata>
Created by potrace 1.14, written by Peter Selinger 2001-2017
</metadata>
<g transform="translate(0.000000,512.000000) scale(0.100000,-0.100000)"
fill="#000000" stroke="none">
<path d="M2379 5116 c-2 -2 -40 -6 -83 -10 -44 -4 -82 -9 -85 -11 -4 -2 -34
-7 -66 -10 -157 -19 -454 -108 -640 -193 -830 -378 -1395 -1161 -1492 -2067
-15 -142 -8 -506 11 -620 3 -16 8 -43 10 -60 12 -80 39 -200 69 -300 11 -38
22 -74 23 -80 1 -5 15 -46 32 -90 206 -559 607 -1035 1126 -1334 75 -44 140
-76 272 -137 140 -64 461 -154 639 -178 205 -29 540 -29 725 -1 644 99 1186
402 1610 900 165 194 338 494 428 740 39 108 80 237 88 279 2 12 6 32 9 46 3
14 7 35 10 48 2 13 6 31 9 40 9 27 19 101 33 227 10 91 10 409 1 505 -28 274
-99 540 -213 799 -55 124 -124 250 -206 371 -334 501 -845 875 -1420 1039
-120 34 -256 63 -359 77 -25 3 -56 8 -70 10 -28 6 -456 15 -461 10z"/>
</g>
</svg>
