<?xml version="1.0" standalone="no"?>
<!DOCTYPE svg PUBLIC "-//W3C//DTD SVG 20010904//EN"
 "http://www.w3.org/TR/2001/REC-SVG-20010904/DTD/svg10.dtd">
<svg version="1.0" xmlns="http://www.w3.org/2000/svg"
 width="512.000000pt" height="512.000000pt" viewBox="0 0 512.000000 512.000000"
 preserveAspectRatio="xMidYMid meet">
<metadata>
Created by potrace 1.14, written by Peter Selinger 2001-2017
</metadata>
<g transform="translate(0.000000,512.000000) scale(0.100000,-0.100000)"
fill="#000000" stroke="none">
<path d="M1150 5114 c-196 -29 -313 -65 -454 -137 -348 -177 -585 -492 -673
-889 -17 -78 -18 -168 -18 -1528 0 -1360 1 -1450 18 -1528 115 -520 489 -895
1007 -1008 81 -18 156 -19 1530 -19 1360 0 1450 1 1528 18 521 115 894 488
1009 1009 17 78 18 168 18 1528 0 1360 -1 1450 -18 1528 -114 519 -472 879
-1002 1009 -64 15 -188 17 -1495 19 -784 1 -1436 0 -1450 -2z m1571 -1264
c364 -30 619 -179 745 -435 63 -128 85 -223 85 -370 0 -349 -192 -623 -514
-735 -29 -10 -51 -22 -50 -27 1 -6 133 -234 292 -508 160 -274 291 -502 291
-506 0 -5 -157 -9 -349 -9 -267 0 -351 3 -359 12 -5 7 -128 228 -272 491
l-263 477 -79 0 -78 0 0 -490 0 -490 -312 2 -313 3 -3 1285 c-1 707 0 1291 3
1298 6 15 994 17 1176 2z"/>
<path d="M2170 3009 l0 -320 258 3 258 3 66 33 c116 57 164 152 156 308 -8
150 -80 244 -213 279 -45 11 -115 15 -292 15 l-233 0 0 -321z"/>
</g>
</svg>
